<?xml version="1.0" encoding="iso-8859-1"?>
<!-- Generator: Adobe Illustrator 19.0.0, SVG Export Plug-In . SVG Version: 6.00 Build 0)  -->
<svg version="1.1" id="&#x421;&#x43B;&#x43E;&#x439;_1"
	 xmlns="http://www.w3.org/2000/svg" xmlns:xlink="http://www.w3.org/1999/xlink" x="0px" y="0px" viewBox="0 0 31.688 29.048"
	 style="enable-background:new 0 0 31.688 29.048;" xml:space="preserve">
<path style="fill:#DF4B3A;" d="M2.641,0h26.407c0.722,0,1.343,0.26,1.862,0.779c0.519,0.52,0.779,1.14,0.779,1.862v15.844
	c0,0.722-0.26,1.343-0.779,1.862c-0.519,0.519-1.14,0.779-1.862,0.779H13.309l-8.028,7.922v-7.922H2.641
	c-0.722,0-1.343-0.26-1.862-0.779C0.26,19.828,0,19.207,0,18.485V2.641c0-0.722,0.26-1.342,0.779-1.862C1.298,0.26,1.919,0,2.641,0z
	"/>
</svg>
